<svg version="1.1" id="Layer_1" xmlns="http://www.w3.org/2000/svg" xmlns:xlink="http://www.w3.org/1999/xlink" x="0px" y="0px"
	 width="100%" viewBox="0 0 1080 1080" enable-background="new 0 0 1080 1080" xml:space="preserve">
<path fill="none" opacity="1.000000" stroke="none" 
	d="
M712.000000,1081.000000 
	C474.694000,1081.000000 237.887985,1081.000000 1.081984,1081.000000 
	C1.054650,1080.860718 1.003363,1080.721313 1.003362,1080.582031 
	C0.999989,720.790222 1.000000,360.998413 1.000000,1.103307 
	C360.889526,1.103307 720.779114,1.103307 1080.834351,1.103307 
	C1080.834351,360.999939 1080.834351,720.999939 1080.834351,1081.000000 
	C958.137268,1081.000000 835.318665,1081.000000 712.000000,1081.000000 
M572.360657,810.177673 
	C527.314758,718.250671 567.273926,607.720764 663.074280,567.507751 
	C764.183350,525.066467 882.193298,584.053772 905.859741,695.396851 
	C911.546448,659.708374 908.377441,623.726501 908.893799,587.880188 
	C909.411377,551.950195 909.007446,516.006897 909.007446,480.203491 
	C663.448059,480.203491 418.431427,480.203491 173.171021,480.203491 
	C173.171021,481.384583 173.171005,482.197845 173.171021,483.011108 
	C173.171829,543.169312 173.058823,603.327942 173.291428,663.485291 
	C173.327911,672.925171 174.289856,682.471252 175.914841,691.777771 
	C188.217270,762.235474 250.742432,816.265564 322.300995,816.906067 
	C405.782501,817.653320 489.275330,817.136169 572.763245,817.159424 
	C573.541321,817.159668 574.319458,817.046631 575.612061,816.946716 
	C574.552673,814.661804 573.666931,812.751404 572.360657,810.177673 
M780.236450,267.146729 
	C771.107056,266.484863 761.978149,265.254150 752.848206,265.246277 
	C611.696411,265.124359 470.544220,265.044861 329.393005,265.354828 
	C316.354584,265.383453 302.899109,266.537689 290.358887,269.878082 
	C230.532791,285.814301 192.786560,324.400726 177.239014,384.253906 
	C174.402985,395.171661 173.926514,406.702332 172.311691,418.303101 
	C418.740356,418.303101 663.657227,418.303101 908.920349,418.303101 
	C908.920349,415.311188 909.099854,412.509033 908.893433,409.735626 
	C905.572632,365.125610 886.879761,328.299805 852.449524,299.729034 
	C831.674377,282.489471 807.695007,271.915619 780.236450,267.146729 
M594.848633,709.333130 
	C594.306824,717.626526 593.104309,725.938904 593.341553,734.209900 
	C594.212646,764.582520 604.088684,791.868469 623.053589,815.664917 
	C647.642273,846.517944 679.933716,863.876892 718.962585,867.689270 
	C749.829407,870.704346 778.923279,863.689331 805.079285,846.769958 
	C842.397339,822.630188 864.123291,788.127991 868.725220,744.004822 
	C872.511475,707.701965 863.531372,674.056946 840.319702,645.404968 
	C804.793823,601.552734 758.604553,584.849487 703.208923,594.991089 
	C672.188599,600.670105 646.540283,616.534241 626.148315,640.502258 
	C609.427490,660.155334 598.747253,682.772522 594.848633,709.333130 
z"/>
<path fill="#000000" opacity="1.000000" stroke="none" 
	d="
M572.570923,810.509338 
	C573.666931,812.751404 574.552673,814.661804 575.612061,816.946716 
	C574.319458,817.046631 573.541321,817.159668 572.763245,817.159424 
	C489.275330,817.136169 405.782501,817.653320 322.300995,816.906067 
	C250.742432,816.265564 188.217270,762.235474 175.914841,691.777771 
	C174.289856,682.471252 173.327911,672.925171 173.291428,663.485291 
	C173.058823,603.327942 173.171829,543.169312 173.171021,483.011108 
	C173.171005,482.197845 173.171021,481.384583 173.171021,480.203491 
	C418.431427,480.203491 663.448059,480.203491 909.007446,480.203491 
	C909.007446,516.006897 909.411377,551.950195 908.893799,587.880188 
	C908.377441,623.726501 911.546448,659.708374 905.859741,695.396851 
	C882.193298,584.053772 764.183350,525.066467 663.074280,567.507751 
	C567.273926,607.720764 527.314758,718.250671 572.570923,810.509338 
M297.659546,635.351685 
	C297.082672,640.278809 295.860260,645.229980 296.043182,650.128723 
	C296.748627,669.019165 306.079346,682.940186 323.104187,690.439148 
	C339.851837,697.815979 356.474579,695.904480 370.849426,683.930908 
	C385.271790,671.917664 390.617554,656.272400 386.340637,637.909424 
	C381.508820,617.164062 364.877411,603.752686 343.451508,602.651245 
	C323.004333,601.600220 304.962585,614.242371 297.659546,635.351685 
z"/>
<path fill="#010101" opacity="1.000000" stroke="none" 
	d="
M780.661133,267.237915 
	C807.695007,271.915619 831.674377,282.489471 852.449524,299.729034 
	C886.879761,328.299805 905.572632,365.125610 908.893433,409.735626 
	C909.099854,412.509033 908.920349,415.311188 908.920349,418.303101 
	C663.657227,418.303101 418.740356,418.303101 172.311691,418.303101 
	C173.926514,406.702332 174.402985,395.171661 177.239014,384.253906 
	C192.786560,324.400726 230.532791,285.814301 290.358887,269.878082 
	C302.899109,266.537689 316.354584,265.383453 329.393005,265.354828 
	C470.544220,265.044861 611.696411,265.124359 752.848206,265.246277 
	C761.978149,265.254150 771.107056,266.484863 780.661133,267.237915 
z"/>
<path fill="#010101" opacity="1.000000" stroke="none" 
	d="
M594.898499,708.893433 
	C598.747253,682.772522 609.427490,660.155334 626.148315,640.502258 
	C646.540283,616.534241 672.188599,600.670105 703.208923,594.991089 
	C758.604553,584.849487 804.793823,601.552734 840.319702,645.404968 
	C863.531372,674.056946 872.511475,707.701965 868.725220,744.004822 
	C864.123291,788.127991 842.397339,822.630188 805.079285,846.769958 
	C778.923279,863.689331 749.829407,870.704346 718.962585,867.689270 
	C679.933716,863.876892 647.642273,846.517944 623.053589,815.664917 
	C604.088684,791.868469 594.212646,764.582520 593.341553,734.209900 
	C593.104309,725.938904 594.306824,717.626526 594.898499,708.893433 
M702.499023,714.480957 
	C693.004822,714.568726 683.489502,714.293579 674.022400,714.845825 
	C664.489319,715.401978 659.053833,721.575623 658.988586,730.754944 
	C658.918945,740.552734 664.334106,747.386536 673.909302,747.955872 
	C685.532043,748.646790 697.211914,748.377197 708.867249,748.516113 
	C710.612610,748.536926 712.358337,748.519043 714.361633,748.519043 
	C714.361633,754.080017 714.319153,758.893921 714.370911,763.706848 
	C714.465759,772.532288 714.193420,781.389099 714.859070,790.173401 
	C715.565125,799.491394 722.507202,805.064026 731.822998,804.806519 
	C741.058167,804.551208 747.634338,798.538025 748.032715,789.230713 
	C748.438477,779.749512 748.234619,770.242004 748.283386,760.745911 
	C748.303650,756.804321 748.286743,752.862671 748.286743,748.519043 
	C750.713745,748.519043 752.521912,748.530762 754.329895,748.517151 
	C765.823608,748.430420 777.331055,748.652222 788.806702,748.149475 
	C798.171875,747.739197 803.744263,741.170959 803.843750,731.617188 
	C803.942383,722.148743 798.446655,715.468018 789.022278,714.879944 
	C779.393127,714.279236 769.708069,714.566406 760.047302,714.486084 
	C756.271545,714.454712 752.495178,714.480957 748.286743,714.480957 
	C748.286743,712.069397 748.292175,710.270386 748.285828,708.471436 
	C748.245850,697.141968 748.425537,685.805969 748.094421,674.484985 
	C747.806458,664.640320 741.417664,658.304688 732.246094,658.022644 
	C722.114441,657.711182 715.544373,663.309753 714.721680,673.686890 
	C714.170105,680.644226 714.419861,687.667419 714.371216,694.661621 
	C714.326294,701.112488 714.361633,707.563904 714.361633,714.481079 
	C710.410278,714.481079 706.955627,714.481079 702.499023,714.480957 
z"/>
<path fill="#FEFEFE" opacity="1.000000" stroke="none" 
	d="
M297.775360,634.963867 
	C304.962585,614.242371 323.004333,601.600220 343.451508,602.651245 
	C364.877411,603.752686 381.508820,617.164062 386.340637,637.909424 
	C390.617554,656.272400 385.271790,671.917664 370.849426,683.930908 
	C356.474579,695.904480 339.851837,697.815979 323.104187,690.439148 
	C306.079346,682.940186 296.748627,669.019165 296.043182,650.128723 
	C295.860260,645.229980 297.082672,640.278809 297.775360,634.963867 
z"/>
<path fill="#FBFBFB" opacity="1.000000" stroke="none" 
	d="
M703.000000,714.481018 
	C706.955627,714.481079 710.410278,714.481079 714.361633,714.481079 
	C714.361633,707.563904 714.326294,701.112488 714.371216,694.661621 
	C714.419861,687.667419 714.170105,680.644226 714.721680,673.686890 
	C715.544373,663.309753 722.114441,657.711182 732.246094,658.022644 
	C741.417664,658.304688 747.806458,664.640320 748.094421,674.484985 
	C748.425537,685.805969 748.245850,697.141968 748.285828,708.471436 
	C748.292175,710.270386 748.286743,712.069397 748.286743,714.480957 
	C752.495178,714.480957 756.271545,714.454712 760.047302,714.486084 
	C769.708069,714.566406 779.393127,714.279236 789.022278,714.879944 
	C798.446655,715.468018 803.942383,722.148743 803.843750,731.617188 
	C803.744263,741.170959 798.171875,747.739197 788.806702,748.149475 
	C777.331055,748.652222 765.823608,748.430420 754.329895,748.517151 
	C752.521912,748.530762 750.713745,748.519043 748.286743,748.519043 
	C748.286743,752.862671 748.303650,756.804321 748.283386,760.745911 
	C748.234619,770.242004 748.438477,779.749512 748.032715,789.230713 
	C747.634338,798.538025 741.058167,804.551208 731.822998,804.806519 
	C722.507202,805.064026 715.565125,799.491394 714.859070,790.173401 
	C714.193420,781.389099 714.465759,772.532288 714.370911,763.706848 
	C714.319153,758.893921 714.361633,754.080017 714.361633,748.519043 
	C712.358337,748.519043 710.612610,748.536926 708.867249,748.516113 
	C697.211914,748.377197 685.532043,748.646790 673.909302,747.955872 
	C664.334106,747.386536 658.918945,740.552734 658.988586,730.754944 
	C659.053833,721.575623 664.489319,715.401978 674.022400,714.845825 
	C683.489502,714.293579 693.004822,714.568726 703.000000,714.481018 
z"/>
</svg>