<svg version="1.1" id="Layer_1" xmlns="http://www.w3.org/2000/svg" xmlns:xlink="http://www.w3.org/1999/xlink" x="0px" y="0px"
	 width="100%" viewBox="0 0 1080 1080" enable-background="new 0 0 1080 1080" xml:space="preserve">
<path fill="none" opacity="1.000000" stroke="none" 
	d="
M712.000000,1081.000000 
	C474.694000,1081.000000 237.887985,1081.000000 1.081984,1081.000000 
	C1.054650,1080.860718 1.003363,1080.721313 1.003362,1080.582031 
	C0.999989,720.790222 1.000000,360.998413 1.000000,1.103307 
	C360.889526,1.103307 720.779114,1.103307 1080.834351,1.103307 
	C1080.834351,360.999939 1080.834351,720.999939 1080.834351,1081.000000 
	C958.137268,1081.000000 835.318665,1081.000000 712.000000,1081.000000 
M572.360657,810.177673 
	C527.314758,718.250671 567.273926,607.720764 663.074280,567.507751 
	C764.183350,525.066467 882.193298,584.053772 905.859741,695.396851 
	C911.546448,659.708374 908.377441,623.726501 908.893799,587.880188 
	C909.411377,551.950195 909.007446,516.006897 909.007446,480.203491 
	C663.448059,480.203491 418.431427,480.203491 173.171021,480.203491 
	C173.171021,481.384583 173.171005,482.197845 173.171021,483.011108 
	C173.171829,543.169312 173.058823,603.327942 173.291428,663.485291 
	C173.327911,672.925171 174.289856,682.471252 175.914841,691.777771 
	C188.217270,762.235474 250.742432,816.265564 322.300995,816.906067 
	C405.782501,817.653320 489.275330,817.136169 572.763245,817.159424 
	C573.541321,817.159668 574.319458,817.046631 575.612061,816.946716 
	C574.552673,814.661804 573.666931,812.751404 572.360657,810.177673 
M780.236450,267.146729 
	C771.107056,266.484863 761.978149,265.254150 752.848206,265.246277 
	C611.696411,265.124359 470.544220,265.044861 329.393005,265.354828 
	C316.354584,265.383453 302.899109,266.537689 290.358887,269.878082 
	C230.532791,285.814301 192.786560,324.400726 177.239014,384.253906 
	C174.402985,395.171661 173.926514,406.702332 172.311691,418.303101 
	C418.740356,418.303101 663.657227,418.303101 908.920349,418.303101 
	C908.920349,415.311188 909.099854,412.509033 908.893433,409.735626 
	C905.572632,365.125610 886.879761,328.299805 852.449524,299.729034 
	C831.674377,282.489471 807.695007,271.915619 780.236450,267.146729 
M594.848633,709.333130 
	C594.306824,717.626526 593.104309,725.938904 593.341553,734.209900 
	C594.212646,764.582520 604.088684,791.868469 623.053589,815.664917 
	C647.642273,846.517944 679.933716,863.876892 718.962585,867.689270 
	C749.829407,870.704346 778.923279,863.689331 805.079285,846.769958 
	C842.397339,822.630188 864.123291,788.127991 868.725220,744.004822 
	C872.511475,707.701965 863.531372,674.056946 840.319702,645.404968 
	C804.793823,601.552734 758.604553,584.849487 703.208923,594.991089 
	C672.188599,600.670105 646.540283,616.534241 626.148315,640.502258 
	C609.427490,660.155334 598.747253,682.772522 594.848633,709.333130 
z"/>
<path fill="#000000" opacity="1.000000" stroke="none" 
	d="
M284.665344,811.309937 
	C230.991318,794.467163 195.861801,759.509949 179.150009,706.220825 
	C174.787292,692.309387 173.199173,677.901123 173.189377,663.349060 
	C173.148972,603.358337 173.171463,543.367676 173.170837,483.376984 
	C173.170822,482.407013 173.170837,481.437042 173.170837,480.150757 
	C418.512817,480.150757 663.527954,480.150757 909.007446,480.150757 
	C909.007446,481.780731 909.007568,483.400177 909.007507,485.019623 
	C909.006836,544.510376 909.120972,604.001587 908.898804,663.491516 
	C908.859253,674.089844 907.423889,684.682922 905.987000,695.383972 
	C892.984802,641.581665 862.999573,600.485901 814.346497,574.613525 
	C765.605408,548.694397 714.628723,546.873474 663.426392,567.362488 
	C631.962158,579.953125 606.628540,600.905457 586.848267,628.521790 
	C567.049622,656.163818 556.316467,687.018127 554.304199,720.844482 
	C552.293762,754.640686 559.385376,786.574890 575.813782,816.874207 
	C574.596375,817.021362 574.016235,817.152954 573.436096,817.152893 
	C490.449158,817.147766 407.460724,817.379944 324.476898,816.865112 
	C311.324738,816.783508 298.193481,813.332703 284.665344,811.309937 
M364.751190,688.311646 
	C381.754181,677.419617 389.733459,662.159119 387.100677,641.849915 
	C383.812958,616.488647 359.525085,598.828918 334.016296,603.179504 
	C308.674316,607.501648 291.673004,631.852112 296.611023,656.753906 
	C302.834808,688.139771 335.069275,703.407288 364.751190,688.311646 
z"/>
<path fill="#010101" opacity="1.000000" stroke="none" 
	d="
M678.999634,418.511047 
	C510.230255,418.511047 341.960938,418.511047 173.279602,418.511047 
	C173.246964,402.836609 175.176163,387.901184 180.019943,373.500427 
	C198.275131,319.226746 235.019363,284.211945 290.485016,269.822845 
	C302.900085,266.602112 316.155121,265.380737 329.027985,265.352966 
	C470.501221,265.047729 611.975342,265.114685 753.449280,265.180603 
	C825.839661,265.214325 886.776001,311.865417 904.216736,380.927216 
	C907.246338,392.923889 908.247314,405.432800 910.312561,418.511078 
	C832.354858,418.511078 755.927246,418.511078 678.999634,418.511047 
z"/>
<path fill="#010101" opacity="1.000000" stroke="none" 
	d="
M749.168701,880.141235 
	C678.262573,886.183105 613.229980,839.505920 597.306396,769.528015 
	C584.811523,714.617798 599.865295,666.780151 641.563843,628.750000 
	C674.995911,598.259033 715.171326,587.027588 759.906189,593.806763 
	C820.586975,603.002380 868.549500,649.608582 879.686462,709.430969 
	C893.180237,781.912476 850.033325,853.391052 779.510132,874.679504 
	C769.879395,877.586548 759.603271,878.355957 749.168701,880.141235 
M661.995300,808.388977 
	C662.104065,809.634766 662.212830,810.880615 662.325317,812.169373 
	C671.408325,812.169373 680.072937,812.011292 688.726746,812.247742 
	C692.157715,812.341370 694.576294,811.365723 697.015381,808.910950 
	C718.850952,786.934570 740.819092,765.090027 762.743408,743.201721 
	C770.506592,735.451233 778.256042,727.687073 785.304199,720.637024 
	C774.741211,710.075989 764.346069,699.682739 753.339966,688.678711 
	C723.906189,718.384216 693.996399,748.534241 664.187500,778.783752 
	C662.970703,780.018555 662.142212,782.174133 662.092224,783.927979 
	C661.869324,791.750061 661.995300,799.582092 661.995300,808.388977 
M782.465515,698.034485 
	C786.599182,702.305603 790.732910,706.576660 795.446167,711.446594 
	C800.604431,705.996765 805.223877,701.212585 809.731445,696.325195 
	C813.740906,691.977966 814.315247,687.608093 810.766907,683.887085 
	C804.115356,676.911865 797.233032,670.141968 790.188599,663.562927 
	C787.026367,660.609619 782.936768,660.594910 779.807129,663.570801 
	C774.413757,668.699158 769.442505,674.271423 764.127136,679.832153 
	C769.930298,685.590942 775.947998,691.562683 782.465515,698.034485 
z"/>
<path fill="#FEFEFE" opacity="1.000000" stroke="none" 
	d="
M364.450012,688.527039 
	C335.069275,703.407288 302.834808,688.139771 296.611023,656.753906 
	C291.673004,631.852112 308.674316,607.501648 334.016296,603.179504 
	C359.525085,598.828918 383.812958,616.488647 387.100677,641.849915 
	C389.733459,662.159119 381.754181,677.419617 364.450012,688.527039 
z"/>
<path fill="#FDFDFD" opacity="1.000000" stroke="none" 
	d="
M661.995239,807.899780 
	C661.995300,799.582092 661.869324,791.750061 662.092224,783.927979 
	C662.142212,782.174133 662.970703,780.018555 664.187500,778.783752 
	C693.996399,748.534241 723.906189,718.384216 753.339966,688.678711 
	C764.346069,699.682739 774.741211,710.075989 785.304199,720.637024 
	C778.256042,727.687073 770.506592,735.451233 762.743408,743.201721 
	C740.819092,765.090027 718.850952,786.934570 697.015381,808.910950 
	C694.576294,811.365723 692.157715,812.341370 688.726746,812.247742 
	C680.072937,812.011292 671.408325,812.169373 662.325317,812.169373 
	C662.212830,810.880615 662.104065,809.634766 661.995239,807.899780 
z"/>
<path fill="#FCFCFC" opacity="1.000000" stroke="none" 
	d="
M782.215576,697.784424 
	C775.947998,691.562683 769.930298,685.590942 764.127136,679.832153 
	C769.442505,674.271423 774.413757,668.699158 779.807129,663.570801 
	C782.936768,660.594910 787.026367,660.609619 790.188599,663.562927 
	C797.233032,670.141968 804.115356,676.911865 810.766907,683.887085 
	C814.315247,687.608093 813.740906,691.977966 809.731445,696.325195 
	C805.223877,701.212585 800.604431,705.996765 795.446167,711.446594 
	C790.732910,706.576660 786.599182,702.305603 782.215576,697.784424 
z"/>
</svg>