<svg version="1.1" id="Layer_1" xmlns="http://www.w3.org/2000/svg" xmlns:xlink="http://www.w3.org/1999/xlink" x="0px" y="0px"
	 width="100%" viewBox="0 0 1024 1024" enable-background="new 0 0 1024 1024" xml:space="preserve">
<path fill="#000000" opacity="1.000000" stroke="none" 
	d="
M419.121155,225.857880 
	C440.260284,224.038452 460.908508,224.492889 481.277618,228.465027 
	C506.458374,233.375473 530.176697,242.345398 552.262268,255.624847 
	C585.589539,275.663605 611.751404,302.680145 630.589417,336.540100 
	C643.548889,359.833771 652.061584,384.755493 655.470093,411.422058 
	C657.939026,430.737579 657.899719,449.888092 655.309631,469.132935 
	C654.075317,478.303680 653.684631,478.690796 644.650696,479.145142 
	C617.907654,480.489990 592.763367,487.890411 569.593323,501.071411 
	C527.968262,524.751038 499.276642,559.439697 485.660370,605.479248 
	C472.043060,651.522522 476.044525,696.338135 498.826904,738.997681 
	C501.059235,743.177734 500.724365,745.912720 497.502869,749.476501 
	C484.100891,764.302368 470.918213,779.323547 457.022705,793.700256 
	C446.999878,804.070251 436.153931,804.436096 426.189819,794.148865 
	C384.965759,751.588379 347.192841,706.177185 313.308228,657.531982 
	C291.939423,626.854553 272.609680,594.995850 256.576385,561.209778 
	C241.946671,530.381348 230.303360,498.511200 226.162781,464.420898 
	C222.770172,436.489044 225.317184,408.879639 233.107590,381.848267 
	C244.050919,343.876709 263.904877,311.232330 292.534119,283.969025 
	C315.703857,261.904755 342.677460,246.103683 372.886230,235.836212 
	C387.736603,230.788788 403.083557,227.728256 419.121155,225.857880 
M348.331146,387.826660 
	C330.510651,420.859009 329.000153,454.492096 345.200012,488.488617 
	C364.873566,529.774902 411.097534,554.296631 456.235565,547.401367 
	C483.478271,543.239807 506.279419,530.662598 523.895996,509.339111 
	C539.825928,490.057312 548.196777,467.647430 548.514709,442.713440 
	C548.776489,422.188690 543.146057,403.008087 532.475891,385.278748 
	C510.374237,348.554932 465.241272,328.092590 423.155975,335.798035 
	C390.568634,341.764496 365.964722,359.115356 348.331146,387.826660 
z"/>
<path fill="#000000" opacity="1.000000" stroke="none" 
	d="
M687.280762,798.500732 
	C647.279480,805.949280 610.121216,799.754517 576.616089,777.076965 
	C547.646240,757.469116 528.151611,730.600830 518.320740,696.706238 
	C508.525818,662.935486 510.885437,629.991028 525.245789,598.299255 
	C544.311096,556.224243 576.549133,528.651794 621.459045,517.216858 
	C665.544067,505.992096 706.368896,514.360046 743.074158,541.165771 
	C772.386047,562.572083 791.194458,591.407104 798.359436,626.900024 
	C806.759033,668.508423 799.176758,707.307922 773.936890,742.045044 
	C752.349487,771.755493 723.323730,790.144165 687.280762,798.500732 
M623.595947,659.096558 
	C612.888733,669.823181 602.220459,680.589111 591.441589,691.243286 
	C589.289856,693.370117 588.121155,695.558899 588.188171,698.674438 
	C588.349121,706.165771 588.340027,713.665710 588.172546,721.157043 
	C588.094849,724.632996 589.453308,725.888611 592.872375,725.818054 
	C600.530884,725.660034 608.195740,725.662109 615.855286,725.780090 
	C618.604492,725.822449 620.559998,724.759827 622.428345,722.886475 
	C651.593933,693.642029 680.768188,664.406006 710.038513,635.266541 
	C712.645752,632.670959 712.801270,630.941406 710.145752,628.339355 
	C702.295776,620.647583 694.540039,612.852600 686.958008,604.897400 
	C683.659363,601.436401 681.389709,601.063782 677.718994,604.815430 
	C660.015320,622.909485 642.002869,640.701416 623.595947,659.096558 
M736.560364,593.000122 
	C730.903381,587.373291 725.331909,581.656982 719.561218,576.149292 
	C715.288452,572.071289 711.045105,572.109131 706.797791,576.116516 
	C702.930420,579.765442 699.317932,583.684998 695.441406,587.323608 
	C693.139160,589.484619 692.950073,591.227478 695.294189,593.526062 
	C703.839050,601.905151 712.307861,610.363037 720.717346,618.878235 
	C722.889648,621.077942 724.542297,620.798096 726.541382,618.700195 
	C729.865479,615.211914 733.382996,611.908997 736.768127,608.477783 
	C742.265564,602.905579 742.315918,599.460754 736.560364,593.000122 
z"/>
</svg>