<svg version="1.1" id="Layer_1" xmlns="http://www.w3.org/2000/svg" xmlns:xlink="http://www.w3.org/1999/xlink" x="0px" y="0px"
	 width="100%" viewBox="0 0 1024 1024" enable-background="new 0 0 1024 1024" xml:space="preserve">
<path fill="#000000" opacity="1.000000" stroke="none" 
	d="
M451.763519,225.050186 
	C483.099274,226.711868 512.290283,234.580856 539.783142,248.682938 
	C568.231262,263.274963 592.266907,283.234589 611.950378,308.416199 
	C632.933716,335.260773 646.814819,365.458740 653.509155,398.809967 
	C658.328369,422.819824 658.858337,447.056183 655.009644,471.308594 
	C653.899902,478.301788 653.212097,478.706940 645.975342,479.104004 
	C609.689941,481.094910 577.071960,493.098267 548.245728,515.242798 
	C513.754395,541.739197 491.467255,576.208740 482.222382,618.686340 
	C473.345551,659.472839 478.285583,698.762146 497.203003,736.119629 
	C502.112915,745.815613 502.278900,743.660278 495.267059,751.733337 
	C482.920685,765.948364 470.296173,779.893921 457.238678,793.455933 
	C446.824646,804.272156 436.201019,804.521179 425.709320,793.672607 
	C384.634583,751.200867 346.996124,705.895569 313.205353,657.389771 
	C291.642578,626.436768 272.154572,594.276489 256.052734,560.159729 
	C241.636780,529.614929 230.026077,498.026703 226.171005,464.245392 
	C222.357269,430.826324 226.578522,398.294159 238.242386,366.559906 
	C251.686737,329.981445 273.462830,299.457794 303.126648,274.565369 
	C321.088684,259.492493 341.250671,248.005508 363.234924,239.468979 
	C391.658875,228.431931 420.983398,224.024902 451.763519,225.050186 
M341.834045,401.294800 
	C335.188568,418.533997 332.837860,436.218842 335.040985,454.684875 
	C342.618408,518.197876 406.414825,561.736572 469.356171,544.615173 
	C524.468201,529.623474 560.701965,470.199585 544.528442,413.182037 
	C530.200012,362.669281 482.394196,329.203491 430.150452,335.084198 
	C388.228912,339.802979 359.353119,362.480530 341.834045,401.294800 
z"/>
<path fill="#000000" opacity="1.000000" stroke="none" 
	d="
M715.293457,789.493164 
	C692.671631,799.487366 669.273132,802.799561 645.159485,801.087769 
	C623.042236,799.517700 602.384827,792.871338 583.385986,781.421814 
	C552.799072,762.988953 531.286255,736.879517 520.192322,702.988525 
	C504.919525,656.331787 511.997894,612.531128 540.150696,572.429749 
	C557.924805,547.112000 581.955811,529.550354 611.335205,520.015503 
	C653.428284,506.354492 693.983765,510.758270 731.906616,533.601624 
	C767.029053,554.758057 789.455017,585.864319 798.146973,625.907410 
	C806.030518,662.226501 800.957458,697.127380 782.161621,729.564819 
	C766.469849,756.645264 744.081604,776.384460 715.293457,789.493164 
M715.681824,673.416382 
	C719.303894,672.031555 722.664856,670.333191 724.891357,666.911926 
	C728.526611,661.325806 729.404968,655.663452 726.251953,649.491272 
	C722.617004,642.375671 716.293030,639.777039 709.014893,639.515930 
	C699.202454,639.163879 689.358948,639.319885 679.541626,639.645020 
	C675.806885,639.768738 674.495911,638.763916 674.570862,634.976562 
	C674.765137,625.152344 674.752014,615.320190 674.604797,605.494446 
	C674.508728,599.083252 672.582153,593.297913 667.104187,589.372009 
	C661.508362,585.361572 655.558472,584.624939 649.274048,587.904663 
	C642.448059,591.467102 639.679260,597.551453 639.464722,604.722717 
	C639.166077,614.706055 639.238098,624.716248 639.628296,634.696350 
	C639.779297,638.559631 638.761597,639.598511 634.993958,639.509460 
	C625.004822,639.273193 615.005127,639.310242 605.012573,639.449219 
	C596.332458,639.570007 589.777527,643.942688 587.312134,650.876221 
	C583.073792,662.795837 591.261902,674.305420 604.402405,674.579041 
	C614.225891,674.783569 624.057495,674.577576 633.885315,674.612915 
	C635.644775,674.619202 637.561890,673.983826 639.077454,675.416199 
	C639.184814,675.800110 639.351990,676.119385 639.352295,676.438782 
	C639.362915,687.265015 639.149109,698.096741 639.431152,708.915527 
	C639.606689,715.646729 641.850891,721.781067 648.048584,725.418213 
	C660.128845,732.507385 674.096375,724.387939 674.588074,709.947876 
	C674.860046,701.961426 674.640076,693.958191 674.641602,685.962524 
	C674.643738,674.621460 674.647766,674.807922 686.031372,674.559265 
	C695.657410,674.348999 705.341431,675.687195 715.681824,673.416382 
z"/>
</svg>